<svg baseProfile="full" width="1000px" height="1000px" viewBox="0 0 1000 1000" version="1.1" xmlns="http://www.w3.org/2000/svg">
    <title>lintmx</title>
    <desc>Created with Little Witch Academia.</desc>
    <defs>
        <radialGradient cx="50%" cy="50%" fx="50%" fy="50%" r="46.6824096%" id="radialGradient-1">
            <stop stop-color="#04FFFE" offset="0%"></stop>
            <stop stop-color="#D8D8D8" stop-opacity="0" offset="100%"></stop>
        </radialGradient>
        <radialGradient cx="50%" cy="50%" fx="50%" fy="50%" r="46.8579379%" gradientTransform="translate(0.500000,0.500000),scale(1.000000,0.991803),rotate(42.592410),translate(-0.500000,-0.500000)" id="radialGradient-2">
            <stop stop-color="#04FFFE" offset="0%"></stop>
            <stop stop-color="#D8D8D8" stop-opacity="0" offset="100%"></stop>
        </radialGradient>
        <radialGradient cx="50%" cy="50%" fx="50%" fy="50%" r="46.7754649%" gradientTransform="translate(0.500000,0.500000),scale(1.000000,0.995633),rotate(42.482405),translate(-0.500000,-0.500000)" id="radialGradient-3">
            <stop stop-color="#04FFFE" offset="0%"></stop>
            <stop stop-color="#D8D8D8" stop-opacity="0" offset="100%"></stop>
        </radialGradient>
        <linearGradient x1="45.5416057%" y1="0.0786661494%" x2="20.481915%" y2="91.2716552%" id="linearGradient-4">
            <stop stop-color="#F88EA8" offset="0%"></stop>
            <stop stop-color="#F88EA8" stop-opacity="0" offset="100%"></stop>
        </linearGradient>
        <linearGradient x1="65.0819291%" y1="99.9999942%" x2="73.0332268%" y2="30.4812079%" id="linearGradient-5">
            <stop stop-color="#235562" offset="0%"></stop>
            <stop stop-color="#235562" stop-opacity="0" offset="100%"></stop>
        </linearGradient>
        <radialGradient cx="61.0137958%" cy="-37.360795%" fx="61.0137958%" fy="-37.360795%" r="125.576617%" gradientTransform="translate(0.610138,-0.373608),scale(0.475303,1.000000),rotate(166.317341),translate(-0.610138,0.373608)" id="radialGradient-6">
            <stop stop-color="#C7CDD0" offset="0%"></stop>
            <stop stop-color="#DCDCDC" stop-opacity="0.830992594" offset="76.4505456%"></stop>
            <stop stop-color="#C7CDD0" stop-opacity="0" offset="100%"></stop>
        </radialGradient>
        <radialGradient cx="37.1991%" cy="49.9999899%" fx="37.1991%" fy="49.9999899%" r="71.0540491%" gradientTransform="translate(0.371991,0.500000),scale(1.000000,0.657448),rotate(90.000000),translate(-0.371991,-0.500000)" id="radialGradient-7">
            <stop stop-color="#CED5DD" offset="0%"></stop>
            <stop stop-color="#A0AAB8" offset="100%"></stop>
        </radialGradient>
        <radialGradient cx="51.4658979%" cy="54.5303044%" fx="51.4658979%" fy="54.5303044%" r="104.379763%" gradientTransform="translate(0.514659,0.545303),scale(1.000000,0.961262),rotate(135.567100),translate(-0.514659,-0.545303)" id="radialGradient-8">
            <stop stop-color="#E2E2E2" offset="0%"></stop>
            <stop stop-color="#D8D8D8" stop-opacity="0.231544384" offset="100%"></stop>
        </radialGradient>
    </defs>
    <g id="Logo" stroke="none" stroke-width="1" fill="none" fill-rule="evenodd">
        <circle cx="500" cy="500" r="250" stroke="black" stroke-width="10" fill="white" />
        <path d="M 300 500 A 100 100 0 0 0 700 500" stroke="black" stroke-width="10" fill="none" />
        <line x1="300" x2="700" y1="350" y2="350" stroke="black" stroke-width="10" />
        <path d="M 300 350 A 100 100 0 1 0 500 350" stroke="black" stroke-width="10" fill="none" />
        <path d="M 500 350 A 100 100 0 1 0 700 350" stroke="black" stroke-width="10" fill="none" />
        <path d="M 375 350 A 10 10 0 0 0 425 350 Z" stroke="black" stroke-width="10" fill="black" />
        <path d="M 575 350 A 10 10 0 0 0 625 350 Z" stroke="black" stroke-width="10" fill="black" />
    </g>
    <g id="Pendant" stroke="none" stroke-width="1" fill="none" fill-rule="evenodd">
        <g id="Witch" transform="translate(27.000000, 48.000000)" fill-rule="nonzero">
            <g id="Star" transform="translate(0.000000, 44.000000)">
                <circle id="Oval-4" fill="url(#radialGradient-1)" cx="827" cy="577" r="65"></circle>
                <path d="M827.892178,514 C823.018601,538.289143 818.436954,553.617641 814.147236,559.985495 C809.857518,566.353348 794.141773,571.834215 767,576.428098 C792.049792,582.497272 807.765537,588.947715 814.147236,595.779425 C820.528935,602.611136 825.110582,617.351327 827.892178,640 C831.14527,617.083195 835.72912,602.343004 841.643731,595.779425 C847.558342,589.215847 863.343765,582.956038 889,577 C862.035038,572.372742 846.249615,566.701241 841.643731,559.985495 C837.037848,553.269748 832.453997,537.94125 827.892178,514 Z" id="Star-4" fill="#07FFE5" transform="translate(828.000000, 577.000000) rotate(45.000000) translate(-828.000000, -577.000000) "></path>
                <ellipse id="Oval-3" fill="url(#radialGradient-2)" cx="363.5" cy="61" rx="60.5" ry="61"></ellipse>
                <path d="M363.916924,12 C360.161873,30.8915556 356.631751,42.8137209 353.326559,47.7664956 C350.021367,52.7192704 337.912513,56.9821677 317,60.5551875 C336.30066,65.2756565 348.409513,70.2926673 353.326559,75.6062198 C358.243606,80.9197724 361.773727,92.3843658 363.916924,110 C366.423404,92.1758186 369.955224,80.7112252 374.512383,75.6062198 C379.069542,70.5012145 391.232081,65.6324745 411,61.0000001 C390.223718,57.4010219 378.061178,52.9898537 374.512383,47.7664956 C370.963588,42.5431376 367.431768,30.6209724 363.916924,12 Z" id="Star-3" fill="#07FFE5"></path>
                <circle id="Oval-2" fill="url(#radialGradient-1)" cx="113.5" cy="352.5" r="92.5"></circle>
                <path d="M115.858596,270 C109.467018,301.999982 103.4583,322.19467 97.8324406,330.584064 C92.2065813,338.973458 71.5957678,346.194284 36,352.246542 C68.8521863,360.242438 89.4629998,368.74064 97.8324406,377.741148 C106.201882,386.741655 112.210599,406.161273 115.858596,436 C120.124944,405.808019 126.136552,386.388401 133.893418,377.741148 C141.650285,369.093894 162.352478,360.846844 196,353 C160.636115,346.903772 139.933921,339.431793 133.893418,330.584064 C127.852915,321.736335 121.841308,301.541647 115.858596,270 Z" id="Star-2" fill="#07FFE5" transform="translate(116.000000, 353.000000) rotate(45.000000) translate(-116.000000, -353.000000) "></path>
                <ellipse id="Oval-1" fill="url(#radialGradient-3)" cx="178" cy="610.5" rx="114" ry="114.5"></ellipse>
                <path d="M176.798498,496 C167.690501,541.49395 159.128078,570.204471 151.111227,582.131562 C143.094378,594.058652 113.723969,604.324404 63,612.928819 C109.814365,624.296479 139.184775,636.37826 151.111227,649.174162 C163.037681,661.970064 171.600105,689.578677 176.798498,732 C182.878045,689.076462 191.444586,661.467848 202.498121,649.174162 C213.551656,636.880475 243.052282,625.155755 291,614 C240.606464,605.333074 211.105837,594.71026 202.498121,582.131562 C193.890404,569.552862 185.323863,540.842342 176.798498,496 Z" id="Star-1" fill="#07FFE5"></path>
            </g>
            <g id="Hat" transform="translate(27.000000, 0.000000)">
                <path d="M699,338 C651.633759,324.77621 583.999595,299.956793 493.2643,259.437875 C433.219143,232.624005 376.443195,210.61474 321.001389,186.879702 L365.010365,139.124495 C507.686291,136.118443 588.197816,185.627847 694.217054,297.093716 L699,338 Z" id="Hat-5" fill="#F16382"></path>
                <path d="M678.513141,143.85578 C752.671795,138.32375 731.710073,98.5327937 646.400427,43.9447726 C604.981852,17.4418131 533.381153,-25.6276607 477.789229,20.0182874 C440.727947,50.4489194 403.133251,90.1536034 365.005142,139.132339 C507.677962,136.120509 588.185744,185.706774 694.202674,297.386894 C689.165818,246.474734 683.935974,195.297696 678.513141,143.85578 Z" id="Hat-4" fill="#515177"></path>
                <path d="M377.002899,210.436829 C380.487849,209.152899 430.919559,145.991982 364.996109,139.131042 C422.338039,137.920552 469.166371,144.981722 512.005981,161.383102 C430.650761,147.654892 421.218345,190.912453 415.004715,226.142853 C396.137984,218.306931 377.002899,210.436829 377.002899,210.436829 Z" id="Hat-Shadow-2" fill="url(#linearGradient-4)"></path>
                <path d="M552.937656,279.931899 C552.937656,274.701278 557.108094,270.425803 565.448969,267.105474 C557.108094,226.301885 571.594275,207.309719 608.907513,210.128974 C609.862089,205.350466 613.160065,194.983638 617.245489,195.994696 C622.888156,197.395199 624.345364,206.309095 625.04722,218.552528 C660.032509,242.407617 661.852535,277.896831 649.782625,296.455072 C652.882252,306.217694 654.839736,313.029766 652.882252,317.245137 C643.613245,318.762305 642.126615,310.332541 636.397089,306.916315 C598.071077,309.901913 586.227999,292.711732 574.902343,279.931899 C566.985295,279.931899 561.636967,286.313846 552.937656,279.931899 Z" id="Hat-Badge" fill="#FFE896"></path>
                <path d="M597.301961,260.838685 C594.146267,257.378752 584.221206,257.264656 578.460875,260.838685 C574.295617,239.959339 578.460875,220.357211 606.884851,223.449399 C605.930761,231.754411 606.884851,242.388631 612.239027,244.812355 C615.94816,244.812355 618.457127,237.689924 622.48118,229.569241 C636.223039,236.589778 649.336678,264.267033 639.900627,281.039979 C633.151599,275.143971 628.278769,271.400835 625.39795,272.186556 C621.146022,273.920822 623.661848,285.223633 625.39795,291.59476 C612.239027,294.207898 594.296647,287.057738 586.985216,273.920822 C592.212965,270.305438 600.610485,263.314628 597.301961,260.838685 Z" id="Hat-Badge-Patch" fill="#F16382"></path>
                <path d="M186.12406,329.43164 C104.09954,282.17323 52.12153,202.1481 27.028491,156.27177 L271.4828,234.73188 C229.55944,263.73267 206.41269,296.30996 186.12406,329.43164 Z" id="Hat-Shaow-1" fill="url(#linearGradient-5)"></path>
                <path d="M724.461064,479.772903 C765.129139,475.930306 784.074351,472.7368 818.680746,459.427872 C881.400795,431.3548 944.677213,323.580999 832.109918,350.134419 C825.787929,351.625709 772.479547,352.694083 747,349 C746.447868,348.984906 728.129162,348.894516 697.791318,346.002946 C717.458982,382.081854 726.159623,448.315391 724.461064,479.772903 Z" id="Hat-3" fill="#261E32"></path>
                <path d="M309.026907,212.361931 C258.720999,180.313246 211.060791,144.962746 164.74036,107.94022 C272.003712,173.767641 377.251103,207.456109 495.08082,260.092056 C621.26062,316.458089 701.656375,341.796644 747,349 C744.980178,348.944781 505.197931,347.881921 309.026907,212.361931 Z" id="Hat-2" fill="#4A4876"></path>
                <path d="M186.12407,329.43164 C104.09955,282.17323 52.12154,202.1481 27.028491,156.27177 C-57.9130082,-32.963721 79.31837,54.289243 164.74036,107.94021 C211.05433,145.01707 258.70789,180.41944 309.00678,212.51515 C242.01077,246.52824 211.7819,287.54461 186.12407,329.43164 Z" id="Hat-1" fill="#261E32"></path>
            </g>
            <g id="FlyBroom" transform="translate(525.000000, 113.000000)">
                <g id="Broom" transform="translate(0.000000, 470.000000)">
                    <path d="M151.301498,19.0064545 C145.327419,33.2567769 142.34038,46.6327486 142.34038,59.1343693 C134.906923,70.8955898 134.906923,70.8955898 128.213924,80.9353727 C105.1788,89.597405 86.4674503,121.411604 62.0989784,157.242431 C37.4704611,193.455622 19.1813244,212.249393 0.842589264,231.712265 C-3.51157967,307.644901 120.9084,334.260199 148.999826,313.021006 C176.828493,264.479803 173.625998,266.987063 191.914705,219.71132 C212.874673,165.530447 215.345839,123.260221 208.18723,113.266991 C210.155537,100.585269 210.321959,102.768338 213.002304,88.0048065 C222.765704,77.6061068 230.425448,65.2733635 235.981537,51.0065765 L151.301498,19.0064545 Z" id="Broom-Main" fill="#CAA379"></path>
                    <path d="M191.181404,116.389113 C193.533323,120.710849 196.070657,124.091733 195.201633,129.914739 C194.300074,135.955743 186.221576,145.30411 175.081278,150.647712 C186.040296,139.789293 191.181404,125.976359 191.181404,116.389113 Z" id="Broom-Shadow-2" fill="#B18055"></path>
                    <path d="M143.616002,93.041133 C156.073408,100.028823 143.616002,93.041133 156.073408,100.028823 C134.02792,112.983173 116.611521,127.516048 100.520165,147.188319 C109.732407,128.607235 121.149991,114.18043 143.616002,93.041133 Z" id="Broom-Shadow-1" fill="#B18055"></path>
                    <path d="M0.954017392,241.006625 C23.2081816,228.605289 44.9502203,214.096008 66.1801334,197.478782 C43.1344864,224.483623 22.2270928,243.328501 3.45795276,254.013418 C2.22614629,249.727167 1.27051918,245.680277 0.954017392,241.006625 Z" id="Broom-Shadow-6" fill="#B6875C"></path>
                    <path d="M7.01145935,262.989502 C51.6863881,247.984971 97.0188938,217.622061 143.008977,171.900774 C118.5917,215.655148 76.2529706,250.658987 15.992787,276.912291 C12.6630941,272.686277 9.64940278,268.489851 7.01145935,262.989502 Z" id="Broom-Shadow-5" fill="#B6875C"></path>
                    <path d="M174.396437,183.158519 C160.987619,215.715763 122.282864,270.641625 58.1530238,306.986442 C65.1867032,310.113041 76.6969685,313.894093 81.33135,314.996137 C122.664129,283.607354 156.324133,251.124077 174.396437,183.158519 Z" id="Broom-Shadow-4" fill="#B58A67"></path>
                    <path d="M180.415648,212.336375 C170.490637,253.73215 151.666516,289.429794 123.000565,319.990127 C131.371744,319.771272 143.188284,317.653249 148.997593,313.020523 C166.712627,281.619658 175.002241,255.87404 180.415648,212.336375 Z" id="Broom-Shadow-3" fill="#B18055"></path>
                    <path d="M151.304504,19.0017242 C152.799554,21.730832 181.024158,32.3983379 235.978317,51.0042419 C229.377543,67.0472704 223.978433,75.9861908 213.000936,88.0033126 C206.296069,86.7732559 210.471197,76.6446997 209.597132,69.760494 C209.183345,66.5014681 205.67333,64.5515238 203.215193,65.7968968 C195.579238,69.6655227 195.187744,74.3492469 194.036118,83.7493493 C189.704393,74.3492469 193.321825,64.5052369 188.935019,61.8682111 C182.64172,58.5730165 176.882578,65.0114063 174.765554,74.3492469 C173.358088,65.7968968 175.762918,54.9225827 171.526753,52.7404657 C168.281736,51.0689051 162.635729,58.9377575 160.052073,67.5931803 C157.72036,59.5862222 161.754664,56.2186453 158.883154,45.2048291 C157.33179,39.2544958 151.75254,40.5970598 150.255021,35.1711319 C149.302437,31.7196571 149.652265,26.3298546 151.304504,19.0017242 Z" id="Broom-Shadow-Bottom" fill="#B18055"></path>
                    <ellipse id="Broom-Oval-Bottom" fill="#DDBC89" transform="translate(193.645199, 34.994167) rotate(20.000000) translate(-193.645199, -34.994167) " cx="193.645199" cy="34.9941669" rx="45.274811" ry="20.761331"></ellipse>
                    <path d="M202.49132,179.867032 C240.225633,234.004375 295.723777,253.042228 313.781319,255.000941 C298.971769,259.534399 286.165752,266.743684 281.924099,282.881611 C249.153322,273.095674 215.165739,240.701572 195.438427,204.353807 C202.49132,179.867032 195.438427,204.353807 202.49132,179.867032 Z" id="Broom-Hoop-3" fill="#DA4867"></path>
                    <path d="M191.159583,220.953281 C205.976762,261.110714 222.046029,285.196974 244.701874,306.430034 C227.857323,301.188999 216.782106,303.767558 205.976762,316.488703 C189.836927,301.188999 181.153363,277.80841 176.697147,257.047386 C191.159583,220.953281 176.697147,257.047386 191.159583,220.953281 Z" id="Broom-Hoop-2" fill="#B82A52"></path>
                    <path d="M141.656808,58.6929847 C128.829517,57.2238123 126.042536,71.4639105 129.301578,80.353763 C136.971986,101.276715 188.853813,113.914405 204.843766,112.338141 C213.599318,111.475033 218.954872,96.744676 213.5203,90.2525538 C200.931799,92.0427131 153.97999,79.7828795 141.656808,58.6929847 Z" id="Broom-Hoop-1" fill="#DA4867"></path>
                </g>
                <g id="Stick" transform="translate(176.000000, 128.000000)">
                    <path d="M0.554033857,365.06384 C1.7381476,381.352179 25.7972212,390.975613 37.2209869,382.463102 C82.9414623,277.495297 122.820564,133.359667 144.063517,7.11135539 C133.588008,7.7015847 118.176737,5.40096343 107.234523,0.299747504 C84.163402,126.629599 63.6974773,209.232728 0.554033857,365.06384 Z" id="Stick-Shadow" fill="#8C5B4A"></path>
                    <path d="M141.603728,21.3417043 C142.449255,16.5752453 143.269407,11.8308022 144.063517,7.11135539 C133.588008,7.7015847 118.176737,5.40096343 107.234523,0.299747504 C106.497529,4.33528622 105.763193,8.32620406 105.030039,12.2763135 C110.775563,19.1155533 133.39146,23.8014455 141.603728,21.3417043 Z" id="Stick-Wooden" fill="#693931"></path>
                </g>
                <g id="Deck" transform="translate(275.000000, 0.000000)">
                    <path d="M26.583368,19.254289 C36.087672,39.575504 69.834484,35.541509 74.085761,28.480372 C71.366342,24.284788 65.050934,14.818512 55.139536,0.081544 C40.064917,10.407209 30.546195,16.798124 26.583368,19.254289 Z" id="Deck-4" stroke="#000000" stroke-width="0.3" fill="#8A909F"></path>
                    <path d="M26.583368,19.254289 C36.087672,39.575504 69.834484,35.541509 74.085761,28.480372 C82.678458,34.545559 82.678458,45.158067 71.831546,49.031223 C64.02999,51.81696 33.105334,49.031223 21.493519,40.62991 C10.937068,32.992166 15.137782,21.246612 26.583368,19.254289 Z" id="Deck-3" fill="#8A909F"></path>
                    <path d="M8,107.597491 C17.226592,123.636055 46.860307,123.636055 57.342478,117.919328 C55.758325,91.72265 62.734019,72.302941 71.723295,48.401313 C63.921739,51.18705 32.997083,48.401313 21.385268,40 C18.775743,72.038727 15.478717,85.883978 8,107.597491 Z" id="Deck-2" fill="#8A909F"></path>
                    <path d="M8.55384228,107.056404 C17.7804343,123.094968 46.7637132,123.159128 57.2458842,117.442401 C63.5620839,119.429785 69.7928925,131.933083 56.0304135,136.311951 C44.7762429,138.910774 14.0895569,137.162184 2.95923869,125.02132 C-0.0510626138,121.637391 -3.56578109,111.965183 8.55384228,107.056404 Z" id="Deck-1" stroke="#000000" stroke-width="0.3" fill="#8A909F"></path>
                    <path d="M26.583368,19.254289 C36.087672,39.575504 69.834484,35.541509 74.085761,28.480372 C82.678458,34.545559 82.678458,45.158067 71.831546,49.031223 C64.02999,51.81696 33.105334,49.031223 21.493519,40.62991 C10.937068,32.992166 15.137782,21.246612 26.583368,19.254289 Z" id="Shadow-3" stroke="#000000" stroke-width="0.3" fill="url(#radialGradient-6)"></path>
                    <path d="M23.961968,44 C35.7203319,50.2226589 46.1682455,51.611068 59.1803529,51.611068 C29.5231217,55.7695301 29.5231217,96.1100699 32.7652487,115.303492 C23.961968,116.621992 18.6060312,115.303492 12,108.704978 C23.961968,99.0018999 32.7652487,62.0305262 23.961968,44 Z" id="Shadow-2" fill="url(#radialGradient-7)"></path>
                    <path d="M52.170538,5.094109 C52.170538,5.094109 44.709107,10.513149 29.786246,21.351229 C32.209853,26.24665 34.569186,27.524945 40.064691,28.380466 C48.135256,12.856228 52.170538,5.094109 52.170538,5.094109 Z" id="Shadow-1" fill="url(#radialGradient-8)"></path>
                </g>
            </g>
        </g>
    </g>
</svg>